# xmcd CD database file
#
# Track frame offsets:
#	150
#	21469
#	44505
#	62604
#	81409
#	100127
#	126412
#	146701
#	166403
#	185775
#	203294
#	229913
#	247627
#	267425
#
# Disc length: 3839 seconds
#
# Revision: 3
# Processed by: cddbd v1.5.2PL0 Copyright (c) Steve Scherf et al.
# Submitted via: CDex 1.70beta2
#
DISCID=c80efd0e
DTITLE=JAM Project - SEVENTH EXPLOSION ～JAM Project BEST COLLECTION Ⅶ～
DYEAR=2010
DGENRE=Anime
TTITLE0=SEVENTH EXPLOSION
TTITLE1=Crest of “Z's”
TTITLE2=レスキューファイアー
TTITLE3=守護神 - The guardian
TTITLE4=ハローダーウィン！～好奇心オンデマンド～
TTITLE5=Cosmic Dance
TTITLE6=Godest！
TTITLE7=アスタマニア～ナ!!
TTITLE8=Battle No Limit！
TTITLE9=Space Roller Coaster GO GO！
TTITLE10=Bonds of Friendship
TTITLE11=晴レルヤ!!
TTITLE12=Three souls
TTITLE13=Only One
EXTD=YEAR: 2010
EXTT0=
EXTT1=
EXTT2=
EXTT3=
EXTT4=
EXTT5=
EXTT6=
EXTT7=
EXTT8=
EXTT9=
EXTT10=
EXTT11=
EXTT12=
EXTT13=
PLAYORDER=
